<svg width="70" height="60" viewBox="0 0 70 60" fill="none" xmlns="http://www.w3.org/2000/svg">
<path fill-rule="evenodd" clip-rule="evenodd" d="M7.3948 2.44586C5.16477 7.15486 4.65727 16.4689 6.36475 21.3459C6.73505 22.4037 7.12845 23.6723 7.23905 24.1653C7.50697 25.3614 10.9875 33.4606 12.3835 36.1372C13.7536 38.7638 13.7282 38.7899 11.1004 37.4539C7.3206 35.5324 4.34752 31.5824 3.05042 26.7591C2.13115 23.3407 1.00397 23.2776 1.0773 26.6486C1.20522 32.5287 6.17522 38.8138 13.5882 42.4706C16.5288 43.921 15.6779 42.7684 22.2467 54.2022C25.0457 59.0745 25.1808 59.2306 26.5972 59.2306C28.3561 59.2306 28.6071 58.8442 29.5953 54.6153C30.5972 50.3277 31.7228 46.6073 32.9289 43.5963L33.7948 41.4345L32.8533 40.1429C32.3355 39.4325 31.798 38.8501 31.6593 38.8486C31.1948 38.8438 29.0869 43.6094 27.7646 47.6533L26.4569 51.653L24.9027 49.3842C23.4623 47.2809 18.952 38.9478 17.8384 36.3318C13.847 26.9551 15.4788 15.6137 21.3028 12.2516C23.3567 11.0658 22.9794 9.60842 20.8173 10.3762C16.3945 11.9469 12.3867 18.6496 11.9586 25.1922C11.8617 26.6723 10.7457 24.0609 9.6236 19.7285C8.47227 15.2833 8.3727 6.6769 9.4353 3.47011C10.3889 0.592864 8.67895 -0.265472 7.3948 2.44586ZM60.6933 1.30964C60.574 1.59979 60.6634 2.85158 60.8918 4.09159C62.1044 10.6742 61.7708 16.6255 59.8924 21.923C58.5846 25.6111 58.0736 26.3961 58.0652 24.7303C58.0377 19.3636 54.3148 12.8505 50.0733 10.7487C46.9222 9.18735 46.6274 10.2682 49.518 12.785C57.5554 19.7832 55.8527 33.9086 45.1036 49.4041L43.5157 51.6931L42.9636 49.7887C41.4831 44.682 40.9738 43.3694 39.0497 39.7004L36.9766 35.7472L38.6433 33.7293C39.56 32.6196 41.4344 31.0319 42.8087 30.2011C44.183 29.3704 45.2428 28.5093 45.1637 28.2877C44.6667 26.8928 40.9378 28.4093 37.4521 31.4237L35.0308 33.5176L32.8846 31.5953C30.582 29.5329 26.8581 27.5442 25.6935 27.7553C24.4517 27.9802 24.6045 28.7777 26.0178 29.4482C32.5726 32.5581 37.2416 40.8257 40.5563 55.1921C41.3933 58.8195 41.6819 59.2306 43.3925 59.2306C44.7998 59.2306 44.9577 59.0613 47.1602 55.1921C48.5179 52.8071 52.0517 46.8559 53.3433 44.7795C53.8356 43.9878 55.1098 43.1054 57.201 42.108C63.3316 39.1837 68.1378 33.2909 69.1072 27.5106C69.7914 23.4291 68.2122 22.8182 67.0997 26.7341C65.7094 31.6285 62.3194 36.0253 58.5225 37.8593C56.6437 38.7669 56.6206 38.5908 58.1947 35.3474C65.3238 20.6584 66.7354 10.4058 62.7265 2.43344C62.0403 1.06886 61.0232 0.50672 60.6933 1.30964Z" fill="white"/>
</svg>
